<?xml version="1.0" encoding="UTF-8"?>
<svg width="446px" height="59px" viewBox="0 0 446 59" version="1.1" xmlns="http://www.w3.org/2000/svg" xmlns:xlink="http://www.w3.org/1999/xlink">
    <!-- Generator: Sketch 42 (36781) - http://www.bohemiancoding.com/sketch -->
    <title>FORFARFIVE</title>
    <desc>Created with Sketch.</desc>
    <defs></defs>
    <g id="ForfarFive" stroke="none" stroke-width="1" fill="none" fill-rule="evenodd">
        <g id="fff-tile" transform="translate(-117.000000, -196.000000)" fill="#FFFFFF">
            <path d="M156.517284,196.837686 C156.973694,196.837686 157.366707,196.977299 157.696336,197.256529 C158.025966,197.535759 158.190778,197.954598 158.190778,198.513058 L158.190778,210.354892 C158.190778,210.73566 158.038644,211.141807 157.73437,211.573345 C157.430097,212.004882 157.024406,212.220647 156.517284,212.220647 L135.2563,212.220647 L135.2563,224.176711 L149.899375,224.176711 C150.355785,224.176711 150.748798,224.316324 151.078428,224.595554 C151.408057,224.874785 151.572869,225.293623 151.572869,225.852083 L151.572869,236.475465 C151.572869,236.856233 151.420735,237.26238 151.116462,237.693918 C150.812188,238.125455 150.406497,238.34122 149.899375,238.34122 L135.2563,238.34122 L135.2563,251.70612 C135.2563,252.82304 134.635085,253.381492 133.392636,253.381492 L118.102985,253.381492 C117.722643,253.305338 117.44373,253.108611 117.266238,252.791304 C117.088745,252.473997 117,252.137657 117,251.782273 L117,198.513058 C117,198.259213 117.012678,198.094215 117.038034,198.018062 C117.06339,197.941908 117.076068,197.878448 117.076068,197.827679 C117.354985,197.573833 117.551492,197.358068 117.665594,197.180376 C117.779697,197.002684 118.001559,196.888455 118.331189,196.837686 L156.517284,196.837686 Z M173.528108,225.052474 C173.528108,226.70247 173.838715,228.231866 174.45994,229.640709 C175.081164,231.049551 175.930581,232.267992 177.008215,233.296066 C178.085849,234.32414 179.340958,235.136434 180.773577,235.732971 C182.206197,236.329508 183.721201,236.627772 185.318635,236.627772 C186.941426,236.627772 188.475447,236.329508 189.920744,235.732971 C191.366042,235.136434 192.633828,234.32414 193.72414,233.296066 C194.814453,232.267992 195.670208,231.049551 196.291433,229.640709 C196.912657,228.231866 197.223265,226.70247 197.223265,225.052474 C197.223265,223.453247 196.912657,221.942889 196.291433,220.521354 C195.670208,219.099819 194.814453,217.868687 193.72414,216.82792 C192.633828,215.787154 191.366042,214.962168 189.920744,214.352939 C188.475447,213.74371 186.941426,213.4391 185.318635,213.4391 C183.721201,213.4391 182.206197,213.74371 180.773577,214.352939 C179.340958,214.962168 178.085849,215.787154 177.008215,216.82792 C175.930581,217.868687 175.081164,219.099819 174.45994,220.521354 C173.838715,221.942889 173.528108,223.453247 173.528108,225.052474 Z M155.423943,225.166704 C155.423943,222.475942 155.785262,219.893102 156.507911,217.418108 C157.23056,214.943115 158.251128,212.620463 159.569645,210.450084 C160.888162,208.279705 162.466556,206.306085 164.304873,204.529167 C166.14319,202.752248 168.165309,201.235544 170.371289,199.979009 C172.57727,198.722473 174.935352,197.745183 177.445606,197.047108 C179.95586,196.349032 182.554821,196 185.242567,196 C187.904958,196 190.49758,196.349032 193.020512,197.047108 C195.543444,197.745183 197.907865,198.722473 200.113845,199.979009 C202.319826,201.235544 204.341945,202.752248 206.180262,204.529167 C208.018579,206.306085 209.596973,208.279705 210.91549,210.450084 C212.234007,212.620463 213.260914,214.943115 213.996241,217.418108 C214.731567,219.893102 215.099225,222.475942 215.099225,225.166704 C215.099225,227.857466 214.731567,230.440306 213.996241,232.9153 C213.260914,235.390293 212.234007,237.700253 210.91549,239.845248 C209.596973,241.990242 208.018579,243.944823 206.180262,245.70905 C204.341945,247.473276 202.319826,248.98998 200.113845,250.259208 C197.907865,251.528435 195.543444,252.505726 193.020512,253.191109 C190.49758,253.876492 187.904958,254.219178 185.242567,254.219178 C182.554821,254.219178 179.95586,253.876492 177.445606,253.191109 C174.935352,252.505726 172.57727,251.528435 170.371289,250.259208 C168.165309,248.98998 166.14319,247.473276 164.304873,245.70905 C162.466556,243.944823 160.888162,241.990242 159.569645,239.845248 C158.251128,237.700253 157.23056,235.390293 156.507911,232.9153 C155.785262,230.440306 155.423943,227.857466 155.423943,225.166704 Z M215.603311,198.513058 C215.603311,198.056136 215.742768,197.662681 216.021685,197.332682 C216.300602,197.002683 216.718971,196.837686 217.276805,196.837686 L242.721524,196.837686 C245.333202,196.837686 247.761013,197.326331 250.005027,198.303637 C252.249042,199.280942 254.195094,200.607265 255.84324,202.282645 C257.491387,203.958026 258.784528,205.918953 259.722704,208.165486 C260.66088,210.412018 261.129961,212.804476 261.129961,215.342932 C261.129961,217.043697 260.920776,218.687322 260.5024,220.273856 C260.084025,221.860391 259.481826,223.345365 258.695787,224.728823 C257.909748,226.112281 256.971586,227.381489 255.881274,228.536486 C254.790962,229.691483 253.573887,230.67512 252.230014,231.487426 L263.069692,251.70612 C263.247185,252.213811 263.177457,252.619958 262.860506,252.924572 C262.543554,253.229187 262.194913,253.381492 261.814572,253.381492 L246.33475,253.381492 C245.802272,253.381492 245.314175,253.216495 244.870443,252.886496 C244.426711,252.556497 244.166815,252.163042 244.090747,251.70612 L235.989513,235.561626 L233.821578,235.561626 L233.821578,251.70612 C233.821578,252.82304 233.21304,253.381492 231.995948,253.381492 L217.276805,253.381492 C216.161137,253.381492 215.603311,252.82304 215.603311,251.70612 L215.603311,198.513058 Z M243.672373,215.723698 C243.672373,215.190622 243.564611,214.651209 243.349085,214.105441 C243.133558,213.559673 242.841967,213.077374 242.474303,212.658529 C242.10664,212.239684 241.669254,211.896997 241.162132,211.63046 C240.65501,211.363922 240.109862,211.230655 239.526672,211.230655 L233.631408,211.230655 L233.631408,220.216741 L239.526672,220.216741 C240.109862,220.216741 240.65501,220.08982 241.162132,219.835975 C241.669254,219.582129 242.10664,219.245789 242.474303,218.826944 C242.841967,218.408099 243.133558,217.932146 243.349085,217.39907 C243.564611,216.865994 243.672373,216.307543 243.672373,215.723698 Z M303.129096,196.837686 C303.585506,196.837686 303.978519,196.977299 304.308149,197.256529 C304.637778,197.535759 304.80259,197.954598 304.80259,198.513058 L304.80259,210.354892 C304.80259,210.73566 304.650456,211.141807 304.346183,211.573345 C304.041909,212.004882 303.636218,212.220647 303.129096,212.220647 L281.868113,212.220647 L281.868113,224.176711 L296.511187,224.176711 C296.967597,224.176711 297.36061,224.316324 297.69024,224.595554 C298.019869,224.874785 298.184681,225.293623 298.184681,225.852083 L298.184681,236.475465 C298.184681,236.856233 298.032547,237.26238 297.728274,237.693918 C297.424001,238.125455 297.018309,238.34122 296.511187,238.34122 L281.868113,238.34122 L281.868113,251.70612 C281.868113,252.82304 281.246898,253.381492 280.004449,253.381492 L264.714797,253.381492 C264.334456,253.305338 264.055543,253.108611 263.87805,252.791304 C263.700557,252.473997 263.611812,252.137657 263.611812,251.782273 L263.611812,198.513058 C263.611812,198.259213 263.62449,198.094215 263.649846,198.018062 C263.675202,197.941908 263.68788,197.878448 263.68788,197.827679 C263.966797,197.573833 264.163304,197.358068 264.277407,197.180376 C264.391509,197.002684 264.613372,196.888455 264.943001,196.837686 L303.129096,196.837686 Z M353.001261,251.70612 C353.432315,252.82304 353.10269,253.381492 352.012378,253.381492 L337.445372,253.381492 C336.202923,253.381492 335.366184,252.82304 334.93513,251.70612 L332.843263,245.156938 L316.602762,245.156938 L314.510894,251.70612 C314.07984,252.82304 313.243102,253.381492 312.000653,253.381492 L297.47168,253.381492 C296.356012,253.381492 296.01371,252.82304 296.444763,251.70612 L315.271573,198.513058 C315.372998,198.106905 315.613877,197.726143 315.994219,197.370759 C316.37456,197.015375 316.780252,196.837686 317.211305,196.837686 L332.272753,196.837686 C332.703807,196.837686 333.09682,197.028067 333.451806,197.408836 C333.806791,197.789604 334.047671,198.157674 334.174451,198.513058 L353.001261,251.70612 Z M321.128803,231.106659 L328.317221,231.106659 L324.742029,216.751767 L321.128803,231.106659 Z M353.429279,198.513058 C353.429279,198.056136 353.568735,197.662681 353.847652,197.332682 C354.126569,197.002683 354.544939,196.837686 355.102773,196.837686 L380.547492,196.837686 C383.15917,196.837686 385.58698,197.326331 387.830995,198.303637 C390.07501,199.280942 392.021061,200.607265 393.669208,202.282645 C395.317354,203.958026 396.610496,205.918953 397.548672,208.165486 C398.486847,210.412018 398.955928,212.804476 398.955928,215.342932 C398.955928,217.043697 398.746743,218.687322 398.328368,220.273856 C397.909992,221.860391 397.307794,223.345365 396.521755,224.728823 C395.735716,226.112281 394.797554,227.381489 393.707242,228.536486 C392.616929,229.691483 391.399855,230.67512 390.055982,231.487426 L400.89566,251.70612 C401.073153,252.213811 401.003425,252.619958 400.686473,252.924572 C400.369522,253.229187 400.020881,253.381492 399.640539,253.381492 L384.160718,253.381492 C383.62824,253.381492 383.140142,253.216495 382.696411,252.886496 C382.252679,252.556497 381.992783,252.163042 381.916714,251.70612 L373.815481,235.561626 L371.647545,235.561626 L371.647545,251.70612 C371.647545,252.82304 371.039008,253.381492 369.821915,253.381492 L355.102773,253.381492 C353.987105,253.381492 353.429279,252.82304 353.429279,251.70612 L353.429279,198.513058 Z M381.498341,215.723698 C381.498341,215.190622 381.390579,214.651209 381.175052,214.105441 C380.959525,213.559673 380.667935,213.077374 380.300271,212.658529 C379.932608,212.239684 379.495221,211.896997 378.9881,211.63046 C378.480978,211.363922 377.93583,211.230655 377.352639,211.230655 L371.457376,211.230655 L371.457376,220.216741 L377.352639,220.216741 C377.93583,220.216741 378.480978,220.08982 378.9881,219.835975 C379.495221,219.582129 379.932608,219.245789 380.300271,218.826944 C380.667935,218.408099 380.959525,217.932146 381.175052,217.39907 C381.390579,216.865994 381.498341,216.307543 381.498341,215.723698 Z M440.955064,196.837686 C441.411473,196.837686 441.804487,196.977299 442.134116,197.256529 C442.463746,197.535759 442.628558,197.954598 442.628558,198.513058 L442.628558,210.354892 C442.628558,210.73566 442.476423,211.141807 442.17215,211.573345 C441.867877,212.004882 441.462186,212.220647 440.955064,212.220647 L419.69408,212.220647 L419.69408,224.176711 L434.337155,224.176711 C434.793564,224.176711 435.186578,224.316324 435.516207,224.595554 C435.845837,224.874785 436.010649,225.293623 436.010649,225.852083 L436.010649,236.475465 C436.010649,236.856233 435.858515,237.26238 435.554241,237.693918 C435.249968,238.125455 434.844277,238.34122 434.337155,238.34122 L419.69408,238.34122 L419.69408,251.70612 C419.69408,252.82304 419.072865,253.381492 417.830416,253.381492 L402.540765,253.381492 C402.160423,253.305338 401.88151,253.108611 401.704018,252.791304 C401.526525,252.473997 401.43778,252.137657 401.43778,251.782273 L401.43778,198.513058 C401.43778,198.259213 401.450458,198.094215 401.475814,198.018062 C401.50117,197.941908 401.513848,197.878448 401.513848,197.827679 C401.792765,197.573833 401.989272,197.358068 402.103374,197.180376 C402.217477,197.002684 402.439339,196.888455 402.768968,196.837686 L440.955064,196.837686 Z M443.246745,198.513058 C443.246745,198.056136 443.386202,197.662681 443.665119,197.332682 C443.944036,197.002683 444.362405,196.837686 444.92024,196.837686 L459.753484,196.837686 C460.133825,196.837686 460.539517,196.989991 460.970571,197.294606 C461.401624,197.59922 461.617148,198.005367 461.617148,198.513058 L461.617148,251.70612 C461.617148,252.82304 460.995933,253.381492 459.753484,253.381492 L444.92024,253.381492 C443.804571,253.381492 443.246745,252.82304 443.246745,251.70612 L443.246745,198.513058 Z M500.193227,251.70612 C500.015734,252.26458 499.68611,252.708803 499.204344,253.038802 C498.976139,253.267263 498.659193,253.381492 498.253495,253.381492 L483.192047,253.381492 C483.03991,253.381492 482.868759,253.356108 482.678589,253.305339 C482.488418,253.25457 482.329945,253.165725 482.203164,253.038802 C482.000315,252.86111 481.810147,252.658037 481.632655,252.429576 C481.455162,252.201115 481.341061,251.959966 481.290349,251.70612 L462.463539,198.513058 C462.032486,197.396138 462.36211,196.837686 463.452422,196.837686 L478.019429,196.837686 C479.261877,196.837686 480.098616,197.396138 480.52967,198.513058 L490.722771,229.583594 L500.953906,198.513058 C501.38496,197.396138 502.221699,196.837686 503.464147,196.837686 L518.031154,196.837686 C519.121466,196.837686 519.45109,197.396138 519.020037,198.513058 L500.193227,251.70612 Z M560.448663,196.837686 C560.905073,196.837686 561.298086,196.977299 561.627716,197.256529 C561.957345,197.535759 562.122157,197.954598 562.122157,198.513058 L562.122157,209.060287 C562.122157,209.441055 561.970023,209.847202 561.665749,210.278739 C561.361476,210.710276 560.955785,210.926042 560.448663,210.926042 L537.438117,210.926042 L537.438117,218.731752 L553.146143,218.731752 C553.602552,218.731752 553.995566,218.845981 554.325195,219.074442 C554.654825,219.302903 554.819637,219.607513 554.819637,219.988281 L554.819637,230.30705 C554.819637,230.560896 554.667502,230.846467 554.363229,231.163774 C554.058956,231.481081 553.653265,231.639732 553.146143,231.639732 L537.438117,231.639732 L537.438117,239.064677 L561.28541,239.064677 C561.74182,239.064677 562.134833,239.210636 562.464463,239.502558 C562.794092,239.79448 562.958904,240.206973 562.958904,240.740049 L562.958904,251.439584 C562.958904,251.64266 562.908193,251.877464 562.806768,252.144001 C562.705344,252.410539 562.565887,252.632651 562.388395,252.810343 C562.134834,253.191111 561.653075,253.381492 560.943104,253.381492 L521.61599,253.381492 C520.500322,253.381492 519.942496,252.82304 519.942496,251.70612 L519.942496,198.513058 C519.942496,198.056136 520.088291,197.662681 520.379887,197.332682 C520.671482,197.002683 521.083512,196.837686 521.61599,196.837686 L560.448663,196.837686 Z" id="FORFARFIVE"></path>
        </g>
    </g>
</svg>